<?xml version="1.0" standalone="no"?>
<!DOCTYPE svg PUBLIC "-//W3C//DTD SVG 20010904//EN"
 "http://www.w3.org/TR/2001/REC-SVG-20010904/DTD/svg10.dtd">
<svg version="1.0" xmlns="http://www.w3.org/2000/svg"
 width="260.000000pt" height="260.000000pt" viewBox="0 0 260.000000 260.000000"
 preserveAspectRatio="xMidYMid meet">
<metadata>
Created by potrace 1.11, written by Peter Selinger 2001-2013
</metadata>
<g transform="translate(0.000000,260.000000) scale(0.100000,-0.100000)"
fill="#000000" stroke="none">
<path d="M504 2579 c-3 -6 -15 -9 -25 -6 -11 3 -17 1 -13 -4 3 -5 -6 -13 -20
-19 -14 -5 -26 -12 -26 -15 0 -4 5 -3 10 0 6 3 10 1 10 -4 0 -6 -8 -11 -17
-11 -14 0 -15 -2 -4 -9 11 -7 11 -9 0 -14 -10 -4 -8 -6 4 -6 11 -1 20 -12 24
-32 4 -22 8 -27 14 -17 5 7 9 8 9 3 0 -6 11 -22 24 -37 14 -14 22 -30 18 -34
-4 -5 1 -2 11 5 15 12 17 12 11 -4 -5 -13 -4 -16 4 -11 7 4 12 1 12 -8 0 -9 5
-16 10 -16 6 0 10 -8 10 -17 0 -15 2 -16 10 -3 7 11 10 12 10 2 0 -19 56 -73
65 -64 5 4 5 -1 2 -11 -4 -10 -3 -16 1 -14 4 3 18 -6 32 -19 13 -13 19 -24 12
-24 -9 0 -7 -8 5 -27 10 -15 13 -24 7 -20 -7 4 -15 0 -18 -9 -3 -8 -2 -13 3
-10 5 3 11 -1 14 -9 4 -9 1 -12 -8 -9 -9 4 -13 -1 -11 -13 2 -10 -4 -24 -13
-31 -9 -8 -10 -11 -4 -7 9 4 11 1 7 -10 -4 -9 -9 -14 -11 -11 -7 6 -49 -37
-45 -47 1 -5 -2 -6 -8 -2 -5 3 -10 1 -10 -4 0 -6 -9 -11 -20 -11 -11 0 -20 -4
-20 -10 0 -5 -15 -10 -32 -10 -25 0 -29 -3 -18 -10 12 -7 10 -9 -7 -7 -12 0
-20 4 -18 7 5 9 -33 6 -41 -3 -12 -12 -26 -8 -18 5 5 8 2 9 -10 5 -10 -4 -19
-1 -22 8 -4 8 -12 15 -20 15 -13 0 -18 12 -15 33 0 4 -2 6 -6 5 -11 -4 -93 79
-93 93 0 5 -4 8 -9 5 -10 -7 -77 65 -73 79 2 5 1 7 -3 3 -4 -4 -13 -2 -21 5
-43 38 -41 38 -83 -2 -31 -30 -37 -41 -28 -51 7 -7 7 -10 1 -7 -6 3 -11 0 -11
-8 0 -8 4 -12 8 -10 12 8 18 -22 6 -34 -8 -8 -8 -11 2 -11 8 0 11 -6 7 -16 -3
-8 -2 -13 3 -10 10 7 23 -22 16 -34 -3 -5 -1 -11 5 -15 6 -4 8 -11 5 -16 -4
-5 -1 -9 5 -9 6 0 8 -5 5 -10 -3 -6 2 -13 11 -17 16 -6 16 -7 -2 -14 -18 -7
-18 -8 0 -8 12 -1 16 -6 13 -16 -4 -8 -1 -17 5 -21 7 -5 8 -2 3 6 -6 9 -4 11
4 5 9 -5 9 -11 2 -18 -7 -7 -3 -16 12 -29 12 -11 15 -17 7 -13 -8 4 -5 -2 8
-12 18 -15 20 -21 10 -32 -7 -8 -8 -11 -3 -9 11 7 28 -10 33 -32 2 -7 12 -21
23 -31 10 -9 19 -21 19 -26 0 -5 12 -20 27 -34 14 -13 23 -18 19 -11 -4 6 -2
12 3 12 10 0 15 -14 12 -33 -1 -5 3 -6 9 -2 5 3 10 1 10 -5 0 -6 4 -9 9 -6 4
3 16 -3 25 -13 11 -12 25 -17 38 -13 16 4 19 2 13 -8 -5 -8 -4 -11 2 -7 5 3
22 -1 38 -9 23 -12 30 -12 37 -2 6 10 8 10 8 -1 0 -7 6 -11 14 -8 8 3 20 -1
26 -8 8 -9 18 -12 29 -7 9 5 23 8 31 7 8 -1 21 3 28 9 9 7 16 6 22 -3 6 -11 9
-11 13 0 4 11 6 11 6 1 1 -8 6 -10 14 -5 18 11 38 13 31 2 -3 -5 0 -9 5 -9 6
0 11 5 11 11 0 8 4 9 13 0 8 -6 17 -8 20 -4 4 3 7 1 7 -5 0 -7 3 -11 8 -11 20
3 32 -2 32 -16 0 -8 6 -12 13 -9 13 5 57 -30 57 -46 0 -5 7 -7 15 -4 10 4 15
0 15 -12 0 -16 2 -17 10 -4 8 12 10 11 10 -7 0 -13 8 -24 20 -28 11 -3 20 -14
21 -23 0 -10 3 -12 5 -5 7 15 54 -24 54 -44 0 -8 3 -12 8 -10 10 6 52 -39 44
-48 -4 -4 -2 -5 3 -3 12 4 55 -37 55 -52 0 -5 9 -10 20 -10 11 0 19 -6 17 -13
-1 -6 3 -11 10 -10 6 2 15 -6 18 -17 4 -11 13 -20 21 -20 8 0 13 -3 11 -7 -2
-5 6 -18 19 -31 13 -12 24 -19 25 -15 0 4 4 -2 9 -14 5 -13 17 -23 27 -23 15
0 16 -2 3 -10 -13 -9 -13 -10 0 -11 8 -1 18 -1 23 0 4 0 7 -4 7 -9 0 -13 28
-42 55 -59 l20 -13 -20 6 c-19 6 -19 6 -1 -9 10 -8 23 -12 29 -8 6 3 7 1 4 -4
-4 -6 8 -26 26 -44 17 -19 31 -37 29 -41 -1 -5 2 -8 8 -8 5 0 19 -9 30 -20 11
-11 17 -20 13 -20 -5 0 4 -11 19 -24 15 -12 26 -25 24 -27 -2 -2 6 -13 17 -24
11 -11 16 -14 12 -6 -5 10 -4 12 4 7 6 -4 9 -11 6 -16 -3 -5 14 -28 37 -50 28
-27 36 -39 23 -35 -15 4 -15 3 3 -6 14 -8 21 -18 17 -27 -3 -10 0 -12 10 -8
10 4 15 -1 15 -15 0 -11 4 -17 10 -14 5 3 10 -1 10 -9 0 -9 5 -16 10 -16 6 0
10 -9 10 -21 0 -11 4 -18 9 -15 10 7 28 -12 33 -34 5 -21 22 -39 32 -32 5 3 6
1 3 -5 -4 -5 2 -19 13 -30 10 -12 16 -24 13 -27 -4 -3 1 -6 11 -6 9 0 14 -4
11 -10 -3 -5 8 -23 25 -40 16 -16 30 -36 30 -45 0 -9 3 -14 8 -12 9 6 33 -19
25 -27 -4 -3 2 -6 12 -6 10 0 15 -3 12 -7 -4 -3 5 -16 18 -29 14 -13 25 -28
25 -34 0 -5 7 -10 16 -10 8 0 12 -4 9 -10 -3 -6 1 -10 10 -10 9 0 13 -5 10
-10 -3 -6 0 -10 8 -10 8 0 20 -7 27 -15 7 -8 16 -12 21 -9 5 3 6 -2 3 -10 -4
-11 1 -14 20 -12 14 2 24 -2 23 -8 -1 -6 4 -10 12 -8 7 2 23 -5 34 -15 15 -13
18 -14 13 -3 -5 10 -3 10 6 -2 13 -15 15 -15 24 0 9 13 12 13 19 2 6 -9 4 -11
-5 -5 -9 5 -11 4 -6 -4 6 -9 11 -9 22 0 8 6 17 9 21 6 3 -4 12 1 20 11 14 16
14 16 9 0 -4 -15 -2 -16 14 -6 10 7 16 16 14 20 -8 13 11 9 25 -4 10 -11 11
-10 6 4 -5 11 1 20 17 28 22 11 22 10 4 -4 -11 -9 -15 -16 -10 -16 14 0 63 58
55 66 -3 4 2 4 12 1 11 -4 17 -1 17 8 0 8 3 15 8 15 4 0 13 9 20 21 9 14 10
19 2 14 -9 -6 -9 -2 -1 14 7 11 17 21 24 21 7 0 6 4 -3 10 -10 6 -11 10 -2 10
6 0 12 5 12 11 0 5 -5 7 -11 3 -8 -4 -8 -1 -2 12 12 27 9 59 -6 78 -7 9 -11
22 -7 31 3 8 2 14 -2 14 -4 -1 -14 -1 -22 0 -13 1 -13 2 0 11 12 8 12 10 -3
16 -9 3 -17 12 -17 20 0 8 -4 14 -10 14 -5 0 -10 7 -10 17 0 9 -3 13 -7 10 -3
-4 -11 3 -17 15 -6 13 -21 28 -34 34 -12 6 -19 14 -15 17 3 4 -1 7 -11 7 -9 0
-14 4 -11 10 6 10 -9 15 -30 10 -5 -1 -7 1 -3 5 8 9 -16 35 -32 35 -6 0 -8 5
-4 12 5 8 2 9 -10 5 -12 -5 -19 0 -26 16 -5 12 -9 18 -9 14 -1 -4 -13 4 -27
18 -14 14 -30 22 -36 19 -7 -4 -8 -2 -4 4 4 7 2 12 -4 12 -15 0 -41 26 -33 34
4 3 -4 6 -16 6 -12 0 -19 4 -16 10 5 9 0 11 -21 10 -3 -1 -18 13 -34 30 -15
16 -30 30 -33 30 -4 0 -18 11 -33 25 -14 13 -30 22 -35 19 -5 -3 -6 3 -2 12 4
12 3 15 -5 10 -7 -4 -12 -2 -12 4 0 6 -4 9 -9 5 -5 -3 -16 3 -23 13 -7 9 -25
25 -40 34 -14 10 -29 27 -33 38 -4 11 -11 18 -16 15 -5 -4 -12 1 -15 9 -3 9
-10 13 -15 10 -5 -3 -9 2 -9 10 0 9 -9 16 -21 16 -11 0 -18 4 -15 9 3 5 -5 16
-19 25 -14 9 -25 23 -25 31 0 8 -9 15 -19 15 -22 0 -53 38 -44 53 3 6 1 7 -6
3 -13 -9 -43 12 -36 24 3 5 -4 11 -15 15 -11 3 -20 13 -20 21 0 8 -3 13 -7 11
-10 -6 -53 39 -46 47 4 3 -1 6 -10 6 -11 0 -17 8 -17 23 0 12 -3 17 -8 11 -5
-7 -14 -5 -27 9 -11 11 -14 17 -5 13 8 -4 4 2 -9 14 -14 12 -31 29 -39 38 -7
9 -10 11 -6 3 4 -9 3 -12 -4 -7 -6 4 -9 13 -5 21 3 9 -1 15 -9 15 -14 0 -48
34 -48 48 0 13 -48 51 -55 44 -3 -4 -3 1 1 11 6 16 -5 22 -29 18 -5 -1 -6 3
-2 9 3 5 -13 29 -38 53 -24 24 -41 49 -39 56 3 8 1 11 -4 8 -9 -5 -26 9 -35
28 -2 6 -7 9 -11 8 -5 -2 -8 4 -8 13 0 9 -10 25 -22 36 -13 11 -18 17 -12 14
6 -3 11 1 11 9 0 8 -9 17 -19 21 -13 4 -16 10 -9 22 11 22 12 25 1 62 -6 21
-5 30 3 30 8 0 8 3 2 8 -13 8 -13 22 -1 41 6 9 5 12 -2 7 -14 -9 -21 15 -10
37 5 11 5 17 -2 17 -5 0 -10 5 -10 11 0 5 6 7 13 3 6 -4 4 2 -6 13 -14 16 -15
23 -6 29 8 5 10 3 4 -6 -5 -8 -4 -11 3 -6 12 7 5 36 -8 36 -5 0 -6 9 -3 20 3
11 1 20 -5 20 -6 0 -9 8 -8 17 2 10 -3 24 -11 31 -7 8 -11 17 -8 22 3 5 0 10
-5 12 -6 2 -12 13 -12 25 -2 14 -7 19 -17 15 -8 -3 -12 -1 -8 5 4 5 -1 19 -9
29 -9 10 -13 13 -9 7 3 -7 4 -13 0 -13 -3 0 -10 11 -15 25 -5 14 -17 25 -25
25 -9 0 -13 5 -10 10 3 6 -1 10 -9 10 -9 0 -16 5 -16 10 0 6 -7 10 -15 10 -8
0 -15 4 -15 9 0 5 -7 12 -16 15 -10 4 -13 2 -9 -7 4 -6 0 -4 -8 6 -8 9 -19 17
-26 17 -6 0 -11 5 -11 10 0 5 -3 9 -7 9 -22 -4 -33 2 -27 14 5 7 0 6 -11 -3
-11 -9 -16 -10 -11 -2 7 12 -6 21 -39 26 -9 1 -21 9 -26 17 -7 12 -9 12 -9 -1
0 -12 -2 -13 -9 -1 -5 8 -14 10 -21 6 -8 -5 -11 -4 -7 2 4 6 0 14 -9 17 -9 4
-13 2 -8 -5 3 -6 -5 -3 -19 6 -15 9 -31 14 -37 10 -5 -3 -10 2 -10 12 0 15 -2
16 -10 3 -9 -13 -14 -7 -11 13 2 11 -7 9 -15 -4z m66 -1023 c0 -3 -4 -8 -10
-11 -5 -3 -10 -1 -10 4 0 6 5 11 10 11 6 0 10 -2 10 -4z m1800 -1173 c0 -7 9
-13 21 -13 11 0 17 -4 14 -10 -6 -9 8 -14 28 -11 4 1 3 -8 -4 -20 -8 -15 -8
-19 0 -15 6 4 11 2 11 -3 0 -6 -4 -11 -9 -11 -5 0 -8 -8 -7 -17 0 -10 -5 -17
-12 -15 -8 1 -11 -2 -8 -7 8 -12 -3 -41 -16 -41 -5 0 -6 6 -2 13 3 6 -5 -1
-19 -16 -14 -16 -31 -26 -36 -22 -6 3 -11 1 -11 -5 0 -6 -4 -8 -10 -5 -5 3
-10 0 -10 -7 0 -9 -3 -9 -10 2 -9 13 -10 13 -10 0 0 -10 -3 -11 -8 -4 -4 6
-15 10 -25 8 -10 -1 -21 4 -24 13 -4 11 -8 12 -13 3 -5 -9 -10 -6 -15 9 -3 11
-14 21 -22 21 -9 0 -13 3 -10 7 4 3 2 12 -4 20 -9 10 -8 13 0 13 7 0 9 5 6 10
-3 6 -1 10 5 10 6 0 9 4 6 9 -3 5 1 14 9 21 8 7 13 16 10 20 -3 5 0 12 6 16 8
4 9 3 5 -4 -4 -7 -2 -12 3 -12 6 0 11 7 11 15 0 15 11 19 39 16 7 -2 10 2 7 7
-8 13 5 17 59 17 30 0 45 -4 45 -12z"/>
</g>
</svg>
